<?xml version="1.0" standalone="no"?>
<!DOCTYPE svg PUBLIC "-//W3C//DTD SVG 20010904//EN"
 "http://www.w3.org/TR/2001/REC-SVG-20010904/DTD/svg10.dtd">
<svg version="1.0" xmlns="http://www.w3.org/2000/svg"
 width="2032.000000pt" height="708.000000pt" viewBox="0 0 2032.000000 708.000000"
 preserveAspectRatio="xMidYMid meet">

<g transform="translate(0.000000,708.000000) scale(0.100000,-0.100000)"
fill="#000000" stroke="none">
<path d="M2620 5203 c-200 -8 -473 -26 -600 -39 -80 -7 -149 -14 -153 -14 -4
0 -6 -438 -4 -972 3 -1063 1 -1020 63 -1236 120 -414 380 -727 769 -922 128
-64 283 -119 405 -145 71 -15 80 -15 173 5 138 30 282 82 420 152 417 213 665
540 779 1028 22 94 22 104 25 1091 l4 997 -53 6 c-92 11 -465 36 -688 46 -189
9 -963 11 -1140 3z m415 -174 c22 -6 59 -17 83 -26 l42 -16 0 -393 c0 -217 -2
-394 -5 -394 -2 0 -38 11 -79 25 -102 34 -186 33 -372 -6 -82 -17 -186 -33
-232 -36 l-82 -6 2 404 3 404 122 -4 c108 -2 133 0 205 22 46 14 94 28 108 30
51 9 166 7 205 -4z m566 -15 c72 -23 108 -27 247 -31 l162 -5 0 -401 0 -400
-92 6 c-51 3 -165 20 -253 36 -90 18 -193 31 -236 31 -72 0 -173 -21 -193 -41
-34 -32 -36 -16 -36 380 l0 389 63 21 c148 49 218 52 338 15z m-1403 -197 c44
-40 22 -118 -40 -140 -10 -3 -32 -1 -49 5 -67 23 -71 125 -5 154 36 15 62 10
94 -19z m1922 -21 c14 0 46 4 71 8 41 7 49 5 77 -19 36 -30 43 -56 12 -48 -11
3 -60 -12 -114 -36 -51 -22 -101 -41 -110 -41 -13 0 -16 12 -16 75 l0 75 28
-7 c15 -4 38 -7 52 -7z m-1765 -46 l0 -45 -47 -3 -48 -3 0 51 0 51 48 -3 47
-3 0 -45z m-160 -275 c50 -50 23 -130 -47 -142 -32 -5 -41 -1 -68 25 -39 39
-39 74 -1 113 38 37 82 39 116 4z m2086 -15 c27 -36 25 -52 -6 -44 -18 4 -45
-3 -91 -26 -36 -18 -83 -35 -105 -37 l-39 -6 0 69 0 69 111 0 c106 -1 112 -2
130 -25z m-1923 -52 l3 -48 -50 0 -51 0 0 51 0 50 48 -3 47 -3 3 -47z m891
-338 c24 -11 61 -20 83 -20 35 0 39 -2 28 -15 -10 -13 -9 -15 12 -15 13 0 30
6 37 13 10 10 12 8 9 -8 -1 -11 -18 -27 -36 -36 -26 -14 -30 -19 -18 -28 7 -6
16 -25 20 -41 4 -22 11 -30 26 -30 13 0 18 -4 14 -11 -3 -6 -17 -9 -30 -6 -19
3 -22 1 -15 -12 5 -9 11 -33 14 -55 3 -21 14 -48 24 -59 18 -21 18 -21 -9 -4
l-27 17 5 -33 c3 -17 1 -45 -5 -61 l-12 -29 -25 24 -25 23 16 -37 c8 -20 15
-53 15 -74 l0 -38 -20 25 c-11 14 -20 19 -20 12 0 -19 19 -53 46 -82 38 -41
52 -88 45 -147 -9 -66 -15 -72 -35 -36 -14 27 -15 27 -16 5 0 -13 11 -40 25
-60 15 -22 25 -50 25 -72 l0 -35 -21 25 c-17 21 -19 22 -15 5 23 -86 26 -118
15 -160 -6 -25 -15 -45 -19 -45 -4 0 -12 25 -19 55 -7 30 -16 55 -20 55 -5 0
-21 -18 -35 -41 -15 -22 -29 -39 -31 -37 -2 2 -11 38 -20 80 -15 74 -42 154
-50 147 -2 -2 -22 -53 -46 -114 -37 -98 -42 -120 -43 -198 -1 -85 -1 -87 -15
-55 -8 18 -16 70 -19 116 -4 74 -2 87 17 112 23 31 27 55 11 65 -5 3 -12 -6
-16 -20 -8 -32 -32 -32 -40 0 -4 16 1 39 15 65 22 42 28 80 12 80 -5 0 -11 -9
-14 -20 -8 -31 -25 -23 -33 15 -11 62 13 142 59 192 24 27 15 43 -11 20 -28
-26 -35 -21 -29 23 7 55 31 88 75 107 20 9 31 18 25 20 -24 8 -13 23 16 23 36
0 81 35 81 62 l0 21 -23 -21 c-30 -28 -63 -31 -46 -3 19 30 4 51 -35 51 -48 0
-52 13 -10 33 46 22 80 21 104 -3 24 -24 30 -25 30 -3 0 19 -28 53 -45 53 -6
0 -24 14 -40 30 -16 17 -38 30 -50 30 -12 0 -31 11 -43 25 -25 29 -39 31 -63
9 -39 -35 -54 24 -18 70 26 32 36 33 51 1 6 -14 17 -25 25 -25 10 0 11 5 3 19
-16 31 -12 44 12 38 14 -4 31 2 50 19 35 29 59 30 117 4z m-536 -51 c31 -23
51 -88 42 -130 -8 -34 8 -59 36 -59 26 0 24 -16 -5 -35 -17 -12 -30 -13 -48
-6 -22 8 -30 5 -53 -19 -23 -24 -26 -34 -21 -62 4 -18 7 -52 6 -75 -1 -42 0
-43 32 -43 18 0 50 5 71 11 31 8 43 7 62 -5 34 -22 45 -20 45 8 0 16 -11 32
-30 46 -35 25 -36 40 -11 95 l17 40 15 -29 c8 -17 38 -49 68 -71 64 -49 86
-96 69 -146 -6 -17 -8 -46 -5 -65 3 -20 0 -49 -9 -69 -19 -45 -18 -128 2 -166
9 -19 13 -41 9 -59 -4 -17 0 -43 11 -66 9 -22 17 -67 18 -102 l1 -64 -18 44
c-38 90 -108 147 -179 148 -35 0 -36 -19 -3 -68 17 -25 25 -50 25 -81 l0 -43
-40 41 c-22 22 -40 50 -40 61 0 11 -4 20 -9 20 -19 0 -60 -62 -66 -98 -10 -59
-11 -59 -25 -15 -13 41 -12 41 32 100 44 57 89 132 101 166 14 39 -14 11 -83
-83 -40 -55 -76 -100 -79 -100 -4 0 -15 15 -24 34 -15 32 -15 35 3 51 29 26
114 195 91 181 -5 -4 -35 -47 -66 -97 -54 -85 -58 -89 -75 -74 -21 19 -26 14
-35 -40 -7 -39 -50 -96 -86 -116 -14 -7 -18 -2 -21 27 -4 31 2 43 37 83 65 73
147 202 128 201 -5 -1 -36 -35 -70 -78 -34 -42 -71 -88 -83 -102 l-20 -25 -20
23 -20 24 41 59 c44 66 91 160 83 168 -3 3 -8 1 -12 -5 -75 -118 -137 -204
-145 -204 -5 0 -7 12 -4 29 3 15 9 52 13 82 10 83 -15 48 -29 -40 -11 -65 -13
-71 -39 -76 -33 -8 -34 -10 -8 -43 18 -22 20 -34 14 -93 -5 -54 -3 -72 10 -90
22 -32 21 -36 -13 -41 l-29 -4 -13 82 c-11 78 -8 272 6 384 6 43 5 44 -8 20
-8 -14 -51 -116 -97 -227 -45 -111 -87 -200 -91 -197 -41 25 41 294 132 434
21 33 39 66 39 71 0 6 -38 -25 -85 -70 -58 -54 -99 -84 -125 -92 -22 -7 -43
-9 -46 -6 -4 3 53 63 125 133 72 69 131 130 131 135 0 4 -28 -5 -63 -21 -70
-34 -146 -47 -173 -32 -15 8 -10 14 37 37 126 65 249 160 249 195 0 13 0 13
-62 -15 -67 -30 -137 -45 -180 -36 -29 6 -20 13 179 139 116 72 218 132 226
132 9 0 24 3 34 7 13 6 8 9 -22 13 -35 4 -40 9 -43 33 -3 28 -3 28 22 12 27
-18 77 -12 161 19 55 20 78 19 108 -5z m1183 -4 c41 -14 86 -25 99 -25 30 0
33 -20 5 -27 -31 -8 -24 -18 23 -31 50 -14 110 -49 103 -61 -3 -4 42 -58 100
-119 58 -62 102 -112 99 -112 -14 0 -77 43 -133 91 -31 26 -58 46 -60 44 -3
-2 37 -49 88 -104 91 -99 180 -209 180 -223 0 -14 -24 -8 -75 16 -59 28 -87
57 -147 151 -43 67 -74 102 -82 94 -3 -2 27 -56 65 -119 146 -241 162 -286
162 -455 0 -127 -18 -219 -35 -180 -4 11 -33 118 -63 238 -52 209 -100 343
-133 370 -14 10 -15 9 -8 -8 33 -80 88 -253 100 -317 24 -119 24 -119 -43
-154 l-58 -30 -6 85 c-7 88 -37 228 -57 259 -12 17 -9 -43 5 -163 l7 -50 -27
30 c-15 17 -48 54 -73 84 -25 30 -48 49 -50 43 -6 -19 55 -112 110 -169 50
-50 50 -52 44 -98 -4 -25 -12 -45 -18 -43 -6 2 -54 55 -107 118 -53 62 -102
116 -110 118 -33 11 57 -127 132 -202 73 -72 78 -81 68 -103 -6 -13 -17 -26
-25 -29 -21 -8 -76 36 -92 74 -9 23 -19 32 -31 30 -11 -1 -38 19 -70 52 -28
30 -54 52 -58 48 -8 -8 17 -57 51 -97 24 -29 25 -34 13 -64 -7 -17 -14 -34
-16 -36 -2 -3 -23 15 -48 39 -25 24 -47 41 -51 38 -10 -11 24 -63 56 -83 47
-30 36 -66 -42 -138 -35 -31 -64 -53 -66 -47 -7 19 47 86 83 106 19 10 35 24
35 30 0 22 -29 36 -67 32 l-37 -3 -14 80 c-8 44 -16 82 -18 84 -1 2 -16 -6
-32 -18 -21 -15 -31 -32 -36 -62 -4 -22 -19 -64 -34 -92 l-27 -52 -5 55 c-3
30 -16 71 -27 90 -31 51 -36 90 -18 133 12 30 13 46 6 75 -6 21 -8 79 -4 137
l6 101 -32 36 c-25 29 -30 41 -25 67 5 26 11 31 35 31 23 0 32 7 48 39 11 21
28 41 37 45 12 5 15 15 12 41 -5 40 3 44 33 14 13 -13 18 -27 14 -37 -3 -9 -9
-29 -12 -44 -5 -27 -4 -28 31 -28 42 0 86 36 86 69 0 11 11 33 25 49 30 36 32
58 4 72 -12 7 -18 18 -15 26 8 21 -5 17 -36 -13 -25 -24 -31 -26 -64 -15 -20
6 -42 8 -50 5 -8 -3 -14 0 -14 5 0 6 21 20 46 32 45 19 46 21 41 56 -5 30 -1
40 30 75 27 29 43 40 62 38 14 -1 42 5 61 14 47 22 59 21 146 -8z m-959 -125
c3 -3 43 -5 89 -6 66 0 88 -4 102 -18 16 -16 15 -17 -13 -14 -16 2 -63 -1
-103 -6 -60 -7 -77 -5 -97 8 -27 18 -32 45 -13 64 9 9 14 8 22 -5 5 -10 11
-20 13 -23z m277 -922 c-7 -103 4 -128 23 -55 6 23 25 55 42 71 l30 29 12 -29
c6 -16 13 -51 16 -79 4 -44 1 -58 -36 -127 -30 -57 -41 -89 -41 -120 l1 -43
18 52 c10 29 29 69 44 90 31 46 42 74 51 133 4 25 15 58 25 73 l18 27 11 -25
c20 -43 14 -90 -18 -150 -17 -32 -28 -60 -26 -62 10 -10 44 18 59 49 l16 32 7
-28 c6 -23 1 -33 -30 -63 -28 -27 -36 -43 -36 -71 l0 -35 31 39 c42 53 59 88
59 121 0 15 13 53 29 83 16 30 32 71 36 90 8 40 24 74 31 67 15 -14 21 -115 9
-149 l-12 -37 36 20 c45 24 77 25 38 1 -19 -11 -42 -45 -67 -97 -22 -45 -54
-94 -74 -113 -63 -57 -40 -71 36 -23 26 16 56 42 67 58 12 15 44 44 71 63 51
36 89 93 111 167 6 24 20 50 31 59 17 16 18 15 18 -28 0 -60 -25 -141 -55
-176 -14 -17 -25 -33 -25 -36 0 -3 32 10 71 29 87 44 148 100 195 177 27 43
49 66 87 88 64 37 74 38 48 4 -12 -15 -21 -38 -21 -53 0 -14 -9 -46 -20 -70
-25 -53 -25 -54 -1 -41 44 23 40 7 -9 -45 -67 -69 -96 -82 -233 -106 -132 -24
-162 -36 -284 -117 -51 -33 -106 -63 -123 -67 -46 -10 -45 -23 2 -45 64 -29
97 -25 195 25 48 25 89 45 91 45 13 0 -81 -97 -114 -116 -61 -36 -173 -57
-264 -49 -67 6 -78 4 -100 -14 l-25 -20 30 -1 c17 0 50 -14 74 -30 52 -35 100
-39 126 -10 26 29 80 36 123 15 32 -15 34 -18 18 -27 -10 -6 -39 -32 -65 -59
-44 -46 -51 -49 -97 -49 -40 0 -59 7 -102 35 -69 47 -101 59 -118 44 -22 -18
-17 -42 20 -90 48 -63 52 -83 22 -114 -34 -34 -65 -31 -112 10 l-39 34 48 1
c56 0 59 11 22 84 -14 27 -25 55 -25 63 0 21 -9 16 -69 -39 -59 -54 -104 -78
-145 -78 -16 0 -54 26 -113 78 -49 42 -103 87 -119 100 l-29 23 62 -5 c84 -7
137 -31 174 -77 45 -57 78 -54 141 11 26 27 48 54 48 60 0 18 -110 42 -173 38
l-60 -4 41 38 c32 29 49 38 77 38 44 0 86 -21 114 -56 19 -24 21 -25 21 -6 0
28 -47 82 -87 98 -57 24 -109 17 -205 -27 l-88 -40 -53 24 c-56 26 -133 90
-168 138 l-21 30 61 -32 c82 -43 153 -49 220 -20 66 28 134 27 219 -4 38 -14
73 -25 77 -25 4 0 -12 16 -36 35 -83 66 -200 81 -322 39 -42 -14 -49 -14 -79
0 -18 9 -44 25 -58 36 l-25 19 48 21 c36 16 59 20 90 15 40 -6 41 -5 22 10
-11 9 -29 17 -40 19 -11 2 -74 13 -140 25 -232 40 -357 96 -215 96 l48 0 -40
44 c-41 43 -41 43 -35 109 3 36 1 76 -4 89 -11 29 9 31 42 4 18 -14 25 -36 35
-106 10 -66 19 -94 35 -109 l21 -21 -7 22 c-3 12 -1 32 5 44 12 21 12 21 33
-10 26 -36 78 -67 99 -58 14 5 13 12 -3 59 -23 65 -26 187 -5 169 7 -6 21 -37
30 -69 21 -70 58 -147 92 -187 l26 -30 -5 75 c-4 51 -1 86 8 108 13 30 35 44
35 21 0 -5 15 -23 33 -40 28 -26 32 -36 33 -82 0 -28 3 -62 7 -74 7 -20 73
-67 181 -128 27 -15 66 -43 87 -62 38 -34 49 -31 29 7 -6 11 -51 47 -101 81
-91 63 -130 103 -144 149 -5 14 -9 66 -9 117 -1 82 -3 94 -25 117 l-25 26 33
-11 c67 -24 126 -107 170 -241 13 -37 27 -70 32 -74 6 -3 28 -29 51 -57 30
-38 39 -45 34 -27 -22 77 -36 190 -31 239 8 67 32 149 53 181 l16 25 13 -45
c10 -32 12 -73 7 -142z m-664 3 c0 -22 3 -48 7 -58 4 -13 -3 -9 -25 11 -37 34
-38 42 -15 68 25 27 33 22 33 -21z m1375 -45 l30 -25 -21 -21 c-30 -31 -54
-17 -54 31 0 21 3 39 8 39 4 0 21 -11 37 -24z m-45 -91 c-7 -8 -16 -15 -21
-15 -5 0 -6 7 -3 15 4 8 13 15 21 15 13 0 13 -3 3 -15z m-1545 -49 c27 -11 35
-22 40 -49 8 -44 -3 -99 -18 -94 -12 3 -71 157 -61 157 2 0 20 -6 39 -14z
m1783 -23 c-13 -49 -52 -126 -71 -142 -13 -10 -16 -7 -22 18 -11 52 11 103 58
133 23 15 43 28 44 28 1 0 -3 -17 -9 -37z"/>
<path d="M2805 4905 c-25 -24 -34 -77 -17 -101 21 -32 82 -43 102 -19 10 13 9
15 -10 15 -13 0 -32 8 -42 17 -18 16 -17 18 13 49 27 28 30 36 19 49 -18 21
-37 19 -65 -10z m39 -14 c3 -4 -3 -16 -14 -26 -19 -17 -20 -17 -20 2 0 29 22
45 34 24z"/>
<path d="M2657 4895 c-21 -15 -22 -25 -2 -25 12 0 15 -13 15 -55 0 -42 3 -55
15 -55 12 0 15 13 15 55 0 51 10 69 25 45 4 -6 13 -5 25 2 18 11 18 14 3 30
-11 12 -21 15 -32 9 -8 -5 -22 -6 -31 -1 -9 5 -22 3 -33 -5z"/>
<path d="M2939 4891 c-21 -17 -23 -23 -13 -49 9 -24 9 -33 -3 -45 -9 -8 -12
-20 -9 -26 12 -19 81 -13 110 10 30 23 33 41 11 59 -14 12 -14 15 0 30 34 38
-52 57 -96 21z m56 -32 c-8 -12 -32 -12 -40 1 -11 18 5 31 26 20 11 -6 17 -15
14 -21z m-1 -45 c25 -10 19 -34 -8 -34 -29 0 -44 19 -25 31 17 11 14 10 33 3z"/>
<path d="M2553 4893 c-42 -3 -56 -9 -73 -30 -11 -14 -20 -39 -20 -54 0 -29 30
-69 53 -70 6 0 33 -1 60 -2 37 -2 46 0 42 11 -3 7 -5 26 -6 40 0 16 -3 21 -6
12 -3 -8 -12 -23 -21 -32 -47 -55 -109 29 -66 90 22 32 51 28 74 -10 l20 -33
0 43 c0 23 -1 41 -2 40 -2 -1 -26 -3 -55 -5z"/>
<path d="M3073 4820 c-1 -11 4 -20 10 -20 7 0 13 9 14 20 1 11 -4 20 -10 20
-7 0 -13 -9 -14 -20z"/>
<path d="M2863 4733 c-35 -5 -65 -36 -56 -59 3 -8 25 -23 49 -33 25 -12 44
-27 44 -36 0 -36 -69 -31 -88 7 -10 21 -11 21 -11 -12 l-1 -35 50 3 c57 4 73
18 68 64 -3 28 -8 34 -43 44 -41 11 -54 36 -22 42 10 2 29 -4 43 -13 25 -16
25 -16 22 6 -3 25 -9 27 -55 22z"/>
<path d="M3056 4733 c-12 -12 -6 -43 9 -43 8 0 15 9 15 19 0 21 -13 34 -24 24z"/>
<path d="M2718 4699 c-14 -16 -22 -31 -17 -34 5 -4 9 -26 9 -49 0 -51 21 -76
45 -56 13 11 13 15 0 33 -8 12 -15 32 -15 44 0 18 6 23 25 23 31 0 33 17 3 22
-17 2 -22 9 -20 26 4 27 4 27 -30 -9z"/>
<path d="M2499 4693 c-38 -26 -48 -45 -49 -85 0 -39 26 -68 62 -68 22 0 36 22
18 28 -21 7 -60 49 -60 64 0 7 5 20 10 28 8 13 13 13 30 2 34 -21 57 11 27 36
-10 9 -20 7 -38 -5z"/>
<path d="M2598 4678 c-20 -17 -33 -115 -18 -133 9 -11 16 -12 31 -2 16 10 21
9 29 -3 8 -13 11 -13 26 2 14 14 15 20 4 33 -8 9 -10 27 -6 46 11 56 -26 88
-66 57z m32 -49 c0 -23 -28 -25 -36 -4 -4 8 -3 22 0 31 5 13 9 14 21 4 8 -7
15 -21 15 -31z m0 -44 c0 -17 -2 -18 -24 -9 -23 9 -20 24 4 24 11 0 20 -7 20
-15z"/>
<path d="M2967 4670 c-20 -16 -27 -31 -27 -55 0 -51 39 -82 68 -53 14 14 16
32 4 24 -5 -3 -19 2 -31 10 -31 22 -25 58 12 62 16 2 27 8 24 15 -6 19 -23 18
-50 -3z"/>
<path d="M3045 4650 c-16 -18 -16 -20 -2 -20 13 0 17 -10 17 -45 0 -49 18 -67
45 -45 13 11 13 14 1 24 -8 6 -16 31 -18 55 -3 51 -16 60 -43 31z"/>
<path d="M2872 4521 c-10 -6 -10 -10 3 -21 12 -10 18 -10 30 0 13 11 13 15 3
21 -7 5 -15 9 -18 9 -3 0 -11 -4 -18 -9z"/>
<path d="M2783 4482 c-14 -19 -18 -33 -12 -43 5 -8 9 -30 9 -50 0 -43 25 -60
46 -32 18 24 17 34 -1 27 -11 -5 -15 1 -15 25 0 17 5 31 10 31 6 0 10 5 10 10
0 6 -6 10 -14 10 -9 0 -12 8 -8 25 6 32 1 32 -25 -3z"/>
<path d="M2506 4459 c-31 -37 -33 -77 -5 -113 26 -33 42 -33 64 0 16 25 16 26
-2 20 -10 -3 -25 -1 -33 4 -12 8 -8 15 22 40 37 30 37 32 22 56 -21 32 -37 30
-68 -7z m34 -43 c-17 -22 -40 -20 -40 2 0 30 21 45 39 28 12 -12 12 -18 1 -30z"/>
<path d="M2997 4473 c-19 -22 -34 -128 -19 -137 6 -3 22 -1 35 5 18 8 30 8 45
0 15 -8 23 -7 33 5 8 10 9 18 2 22 -5 4 -13 27 -17 52 -4 24 -12 50 -18 57
-15 18 -42 16 -61 -4z m43 -55 c0 -13 -27 -9 -40 7 -19 23 -1 39 21 19 10 -9
19 -21 19 -26z m-10 -31 c0 -21 -12 -28 -27 -16 -19 16 -16 29 7 29 11 0 20
-6 20 -13z"/>
<path d="M2611 4466 c-8 -10 -9 -16 -1 -21 5 -3 10 -31 10 -61 0 -40 4 -54 14
-54 11 0 16 15 18 53 2 38 7 52 18 52 11 0 16 -14 18 -57 3 -63 9 -69 37 -38
10 11 13 20 7 20 -8 0 -12 18 -12 48 0 62 -10 78 -40 62 -16 -9 -25 -9 -33 -1
-15 15 -22 14 -36 -3z"/>
<path d="M2876 4461 c-16 -17 -16 -19 4 -24 16 -4 20 -13 20 -44 0 -45 8 -57
25 -43 14 12 8 97 -8 118 -13 16 -21 15 -41 -7z"/>
<path d="M3530 4951 c0 -15 6 -21 21 -21 25 0 22 33 -4 38 -12 2 -17 -3 -17
-17z"/>
<path d="M3433 4932 c14 -15 15 -24 5 -55 -14 -45 -22 -46 -38 -7 -10 24 -10
33 0 45 10 13 9 15 -11 15 -13 0 -42 3 -64 6 -38 5 -39 5 -15 -8 17 -9 36 -40
60 -96 39 -93 41 -92 76 23 9 33 26 68 37 78 19 16 18 17 -23 17 -41 0 -42 -1
-27 -18z"/>
<path d="M3647 4899 c-15 -15 -23 -30 -18 -33 5 -3 11 -31 13 -61 6 -66 20
-87 45 -63 13 14 14 20 4 32 -7 8 -11 32 -9 53 3 33 6 38 31 41 33 4 26 22 -8
22 -15 0 -25 7 -27 19 -3 16 -6 15 -31 -10z"/>
<path d="M3512 4892 c-22 -17 -22 -17 -2 -30 14 -8 20 -23 20 -46 0 -47 9 -66
30 -66 30 0 42 24 19 38 -14 9 -19 23 -19 56 0 54 -17 71 -48 48z"/>
<path d="M3787 4852 c-21 -23 -33 -117 -17 -137 10 -12 15 -12 37 2 21 14 26
14 33 2 8 -12 12 -11 27 3 13 14 15 21 5 30 -7 7 -12 30 -12 53 0 62 -38 86
-73 47z m31 -24 c7 -7 12 -18 12 -25 0 -10 -5 -10 -25 -1 -26 12 -34 38 -12
38 7 0 18 -5 25 -12z m10 -66 c3 -19 -1 -23 -15 -20 -10 2 -19 14 -21 26 -3
19 1 23 15 20 10 -2 19 -14 21 -26z"/>
<path d="M3323 4695 c-38 -16 -53 -42 -53 -89 0 -49 34 -71 112 -71 58 0 58 0
58 29 l0 30 -20 -22 c-12 -12 -31 -22 -44 -22 -21 0 -66 37 -66 55 0 4 29 5
65 2 61 -6 65 -5 65 14 0 15 -5 19 -17 15 -10 -2 -37 -8 -60 -11 -35 -6 -44
-4 -50 11 -4 11 1 23 16 36 31 24 60 23 88 -4 l23 -21 0 31 c0 31 -1 32 -42
32 -24 -1 -57 -7 -75 -15z"/>
<path d="M3488 4682 c-16 -9 -28 -19 -28 -22 0 -3 12 -6 28 -5 23 0 27 -4 30
-33 2 -19 -4 -44 -13 -58 -19 -30 -2 -32 19 -2 15 21 16 21 36 3 19 -18 21
-18 40 0 l21 19 -31 24 c-34 26 -41 57 -11 47 20 -6 51 3 51 14 0 4 -12 13
-26 20 -20 9 -30 9 -41 0 -10 -9 -17 -9 -25 -1 -15 15 -17 15 -50 -6z"/>
<path d="M3679 4652 c-40 -36 -44 -80 -9 -117 30 -32 41 -31 71 1 23 26 23 26
2 20 -31 -10 -78 32 -69 61 6 18 12 21 41 16 39 -6 45 5 16 31 -18 17 -21 16
-52 -12z"/>
<path d="M3805 4635 c-35 -35 -35 -96 1 -124 25 -20 27 -20 49 -3 45 33 57 90
29 130 -20 29 -49 28 -79 -3z m47 -22 c19 -17 23 -49 9 -72 -8 -12 -12 -13
-26 -1 -28 23 -37 48 -25 70 13 24 18 25 42 3z"/>
<path d="M3925 4590 c3 -5 10 -10 16 -10 5 0 9 5 9 10 0 6 -7 10 -16 10 -8 0
-12 -4 -9 -10z"/>
<path d="M3928 4563 c7 -3 16 -2 19 1 4 3 -2 6 -13 5 -11 0 -14 -3 -6 -6z"/>
<path d="M3280 4426 c0 -106 13 -132 46 -95 14 16 15 23 7 26 -9 3 -13 29 -13
84 0 72 -2 79 -20 79 -19 0 -20 -7 -20 -94z"/>
<path d="M3538 4485 c-15 -12 -23 -26 -18 -31 5 -5 10 -34 12 -64 3 -47 6 -55
24 -58 28 -4 53 25 30 34 -19 7 -22 80 -3 87 9 4 9 8 1 14 -7 4 -13 16 -15 25
-4 14 -7 14 -31 -7z"/>
<path d="M3406 4469 c-19 -15 -25 -26 -20 -44 3 -12 1 -26 -5 -29 -14 -9 -14
-63 0 -71 5 -4 19 1 29 10 14 13 23 14 39 6 16 -9 23 -7 36 11 14 20 14 23 0
26 -11 3 -15 16 -15 46 0 38 -13 66 -31 66 -3 0 -18 -9 -33 -21z m23 -28 c18
-12 6 -42 -14 -35 -8 3 -15 15 -15 25 0 21 8 23 29 10z m9 -63 c-7 -19 -38
-22 -38 -4 0 10 9 16 21 16 12 0 19 -5 17 -12z"/>
<path d="M3621 4447 c-9 -12 -8 -16 4 -21 10 -4 15 -19 15 -51 0 -51 16 -65
55 -47 18 8 26 8 36 -4 22 -26 35 0 29 62 -6 67 -28 90 -57 61 -16 -16 -16
-17 0 -17 13 0 17 -9 17 -34 0 -38 -10 -49 -34 -40 -10 4 -16 22 -18 52 -3 50
-24 66 -47 39z"/>
<path d="M3800 4425 c-10 -12 -9 -16 4 -21 12 -5 16 -20 16 -60 0 -47 2 -54
20 -54 18 0 20 7 20 55 0 54 6 65 26 45 11 -11 44 -3 44 10 0 17 -31 32 -54
26 -14 -3 -28 -2 -31 4 -9 15 -31 12 -45 -5z"/>
<path d="M3163 4030 c-13 -5 -23 -14 -23 -21 0 -6 7 -9 15 -5 10 3 15 -1 15
-13 0 -11 -6 -21 -12 -24 -7 -2 0 -8 15 -12 21 -6 42 -1 78 15 l48 23 -47 23
c-52 26 -57 27 -89 14z m82 -29 c3 -5 1 -12 -4 -15 -5 -3 -11 1 -15 9 -6 16 9
21 19 6z"/>
<path d="M5264 5143 c-3 -16 -13 -54 -21 -85 -25 -92 3 -121 45 -47 32 55 72
71 170 67 l77 -3 0 -312 c0 -211 -4 -316 -11 -323 -6 -6 -28 -14 -50 -17 -21
-3 -42 -11 -46 -16 -18 -28 6 -32 160 -30 151 1 157 2 160 22 3 17 -2 21 -25
21 -16 0 -39 7 -51 16 -22 15 -22 16 -22 330 l0 314 83 0 c106 0 148 -19 160
-73 8 -31 13 -38 31 -35 19 3 22 11 28 93 4 50 3 94 -2 99 -4 4 -21 -2 -37
-13 -28 -21 -36 -22 -305 -19 -246 3 -278 5 -295 21 -28 24 -42 21 -49 -10z"/>
<path d="M14753 5078 c-17 -71 -20 -94 -10 -100 20 -12 26 -10 41 20 8 15 26
38 41 52 24 22 37 25 121 28 l94 4 0 -315 c0 -315 0 -316 -22 -331 -12 -9 -38
-16 -56 -16 -28 0 -33 -3 -30 -21 3 -21 8 -21 160 -23 124 -1 159 2 163 12 8
21 -1 29 -45 36 -31 5 -43 12 -50 32 -6 16 -9 145 -8 323 l3 296 82 3 c109 4
147 -12 160 -64 6 -29 14 -40 31 -42 20 -3 22 1 23 40 0 24 4 66 8 93 10 57
-2 74 -32 47 -17 -15 -50 -17 -309 -17 -264 0 -291 2 -302 18 -27 35 -40 19
-63 -75z"/>
<path d="M13726 5140 c-100 -30 -163 -139 -137 -237 18 -66 63 -116 169 -187
55 -36 108 -79 118 -94 10 -15 20 -50 22 -77 4 -44 0 -55 -22 -82 -76 -91
-222 -52 -273 73 -14 34 -23 44 -38 42 -17 -3 -20 -10 -17 -43 1 -22 7 -61 13
-87 10 -42 15 -48 52 -63 56 -23 163 -30 225 -15 59 14 128 68 148 117 8 18
14 57 14 88 0 105 -38 157 -182 251 -114 74 -141 108 -135 172 5 51 26 77 74
93 74 24 143 -7 175 -77 36 -83 72 -33 51 71 -8 37 -12 41 -53 52 -53 13 -163
15 -204 3z"/>
<path d="M17160 5132 c-75 -25 -96 -37 -153 -91 -127 -119 -160 -312 -81 -470
41 -82 93 -132 183 -175 62 -29 73 -31 176 -31 103 0 114 2 177 32 296 140
302 578 9 716 -83 39 -224 48 -311 19z m226 -60 c87 -45 145 -141 166 -275 37
-241 -109 -422 -306 -378 -143 32 -228 167 -229 361 -1 76 4 107 22 152 26 67
100 140 158 157 54 15 143 7 189 -17z"/>
<path d="M6153 5123 c-7 -19 6 -33 31 -33 12 0 31 -6 42 -14 18 -14 19 -31 22
-310 2 -190 -1 -303 -7 -315 -6 -11 -24 -22 -41 -26 -33 -7 -42 -17 -35 -37 4
-10 37 -13 148 -12 133 2 142 3 145 22 2 16 -4 20 -37 26 -25 4 -44 14 -51 26
-6 12 -9 72 -8 152 l3 133 200 0 200 0 3 -139 c2 -92 -1 -143 -9 -152 -6 -7
-27 -16 -46 -20 -27 -5 -33 -11 -31 -26 3 -19 11 -21 148 -21 135 0 145 2 148
20 2 15 -6 21 -40 28 -36 9 -43 14 -51 44 -4 18 -7 159 -5 313 3 263 4 280 22
294 11 8 30 14 42 14 26 0 37 12 29 32 -4 10 -37 13 -148 12 -132 -1 -142 -2
-142 -19 0 -14 10 -21 34 -26 18 -4 38 -13 42 -21 5 -7 8 -69 7 -138 l-3 -125
-200 0 -200 0 -3 122 c-2 112 -1 124 18 143 11 11 32 20 46 20 20 0 25 4 22
22 -3 20 -8 21 -147 22 -106 1 -144 -1 -148 -11z"/>
<path d="M7215 5122 c-7 -19 3 -32 26 -32 10 0 28 -9 39 -20 19 -19 20 -33 20
-313 0 -327 0 -325 -66 -336 -29 -5 -39 -11 -39 -24 0 -17 18 -18 288 -20
l288 -2 25 79 c14 44 23 85 20 93 -11 27 -36 12 -70 -41 -44 -69 -74 -80 -202
-74 -130 5 -128 4 -132 173 l-4 135 90 0 c97 0 107 -5 121 -57 5 -18 15 -29
29 -31 22 -3 22 -1 22 117 0 72 -4 122 -10 126 -16 10 -40 -14 -40 -41 0 -43
-24 -54 -121 -54 l-90 0 3 138 3 137 100 3 c115 2 142 -7 167 -58 23 -48 36
-60 53 -54 11 4 14 16 10 43 -2 20 -7 56 -10 81 l-5 45 -255 0 c-204 0 -256
-3 -260 -13z"/>
<path d="M8415 5122 c-8 -21 4 -32 34 -32 53 0 56 -12 62 -279 6 -276 13 -308
76 -373 53 -55 109 -73 223 -73 82 0 103 4 152 27 38 18 67 40 87 69 54 74 63
121 70 371 4 151 10 231 18 239 6 6 26 14 45 18 23 5 33 12 33 26 0 17 -9 19
-132 19 -80 1 -134 -3 -136 -9 -8 -20 5 -35 31 -35 63 -1 72 -33 72 -271 0
-211 -11 -266 -63 -326 -40 -46 -82 -63 -152 -63 -66 0 -110 17 -147 56 -56
60 -62 89 -66 332 -4 250 1 272 58 272 31 0 43 11 35 32 -4 10 -38 13 -150 13
-112 0 -146 -3 -150 -13z"/>
<path d="M9386 5124 c-7 -18 7 -29 51 -42 24 -7 47 -21 53 -32 11 -21 12 -549
1 -590 -5 -17 -17 -27 -41 -34 -19 -5 -38 -14 -42 -19 -17 -27 6 -32 135 -31
124 1 132 3 135 21 3 17 -4 21 -39 26 -23 3 -47 10 -53 17 -7 7 -12 94 -14
268 -2 234 -1 255 13 237 79 -101 513 -585 523 -583 11 2 14 65 15 338 2 370
3 375 63 386 28 5 34 11 32 27 -3 19 -10 20 -133 21 -124 0 -130 -1 -133 -20
-3 -18 4 -22 37 -28 61 -9 65 -23 69 -246 6 -303 24 -293 -159 -89 -202 226
-278 317 -296 354 l-14 30 -99 0 c-65 1 -101 -3 -104 -11z"/>
<path d="M10433 5123 c-8 -19 6 -33 33 -33 13 0 33 -9 44 -20 19 -19 20 -33
20 -313 0 -219 -3 -297 -12 -309 -7 -9 -29 -21 -48 -26 -24 -5 -35 -14 -35
-26 0 -17 12 -18 150 -18 138 0 150 1 150 18 0 12 -11 21 -35 26 -19 5 -41 17
-47 26 -19 23 -18 591 0 616 7 10 29 21 47 25 25 5 35 12 35 26 0 18 -9 19
-149 19 -107 1 -150 -2 -153 -11z"/>
<path d="M10915 5122 c-7 -19 3 -32 24 -32 46 0 68 -38 171 -292 57 -139 118
-293 135 -343 28 -76 36 -90 55 -90 18 0 27 16 59 100 73 192 236 549 273 598
8 10 30 22 48 26 25 5 35 12 35 26 0 17 -9 19 -115 19 -63 1 -120 -3 -127 -7
-18 -12 -4 -37 21 -37 44 0 51 -14 32 -62 -33 -81 -189 -453 -193 -458 -2 -2
-8 2 -13 10 -14 23 -150 356 -176 432 l-23 67 35 7 c28 5 34 11 32 27 -3 20
-9 21 -135 21 -102 1 -134 -2 -138 -12z"/>
<path d="M11884 5131 c-2 -2 -4 -13 -4 -23 0 -12 7 -18 23 -18 13 0 32 -6 43
-14 18 -13 19 -31 23 -246 3 -230 -3 -364 -18 -389 -5 -7 -27 -15 -50 -18 -34
-5 -41 -9 -39 -25 3 -18 16 -19 286 -21 l282 -2 21 55 c43 112 18 176 -34 88
-43 -75 -57 -82 -161 -86 -114 -5 -163 8 -173 46 -4 15 -8 79 -8 142 l0 115
75 3 c105 4 117 0 130 -48 8 -31 16 -40 33 -40 21 0 22 3 22 117 0 65 -4 121
-9 125 -17 12 -35 -4 -42 -38 -9 -47 -30 -55 -127 -52 l-82 3 -3 115 c-4 173
-12 162 118 158 98 -3 111 -5 134 -27 14 -13 28 -36 31 -51 7 -31 24 -43 45
-30 9 5 10 24 5 71 -3 35 -8 71 -11 79 -3 13 -40 15 -255 15 -138 0 -253 -2
-255 -4z"/>
<path d="M12750 5131 c-56 -5 -65 -9 -65 -26 0 -14 9 -21 33 -26 18 -4 36 -10
40 -14 12 -11 14 -578 3 -608 -8 -21 -19 -28 -51 -33 -34 -6 -40 -10 -38 -27
3 -18 11 -20 148 -20 137 0 145 2 148 20 2 16 -4 22 -29 27 -57 11 -59 17 -59
157 l0 129 38 0 c20 0 43 -4 51 -9 8 -5 53 -67 100 -137 110 -165 140 -187
253 -193 73 -3 80 -2 76 15 -2 10 -16 21 -33 26 -43 11 -123 96 -204 218 l-71
105 23 17 c12 9 35 27 50 39 67 51 88 167 44 244 -16 28 -38 48 -79 68 -52 27
-66 29 -185 32 -70 2 -157 0 -193 -4z m274 -65 c18 -7 44 -29 57 -47 20 -28
24 -46 24 -106 0 -66 -2 -74 -29 -102 -34 -35 -79 -51 -148 -51 l-48 0 0 160
0 160 55 0 c31 0 71 -6 89 -14z"/>
<path d="M14244 5131 c-2 -2 -4 -13 -4 -23 0 -13 8 -18 28 -18 16 0 37 -6 48
-14 18 -14 19 -31 22 -303 2 -179 -1 -300 -7 -316 -8 -21 -19 -28 -51 -33 -34
-6 -40 -10 -38 -27 3 -18 12 -19 150 -21 115 -1 149 2 153 12 8 20 -1 29 -36
36 -61 12 -59 1 -59 332 0 332 0 334 60 334 31 0 43 11 35 32 -4 10 -38 13
-151 13 -80 0 -148 -2 -150 -4z"/>
<path d="M15624 5131 c-2 -2 -4 -12 -4 -22 0 -11 11 -19 35 -23 47 -9 67 -38
169 -244 l86 -174 0 -93 c0 -121 -8 -142 -57 -151 -21 -4 -41 -11 -45 -17 -17
-28 6 -32 160 -30 151 1 157 2 160 22 3 18 -2 21 -32 21 -65 0 -76 22 -76 156
0 134 -2 128 128 347 75 126 112 167 153 167 20 0 32 27 17 36 -6 4 -60 8
-120 8 -82 1 -109 -2 -113 -12 -8 -20 1 -29 36 -36 37 -7 39 0 -46 -161 -97
-183 -83 -179 -153 -40 -33 66 -67 137 -75 157 l-16 38 32 8 c21 6 32 14 32
27 0 17 -11 18 -133 19 -74 1 -136 -1 -138 -3z"/>
<path d="M17934 5131 c-2 -2 -4 -13 -4 -23 0 -12 7 -18 24 -18 55 0 56 -6 56
-330 0 -164 -3 -306 -6 -314 -4 -9 -23 -19 -46 -22 -32 -6 -38 -10 -36 -27 3
-18 11 -19 153 -19 142 0 150 1 153 19 3 17 -4 21 -39 26 -23 3 -47 11 -53 17
-7 7 -11 60 -11 148 l0 137 80 3 c109 4 122 0 136 -48 11 -37 31 -56 49 -45 4
2 8 59 8 125 0 118 0 120 -23 120 -18 0 -24 -7 -29 -34 -10 -52 -23 -57 -127
-54 l-94 3 0 140 0 140 106 0 c120 0 142 -10 155 -69 7 -34 20 -47 41 -39 9 4
13 28 13 87 l0 81 -251 0 c-138 0 -253 -2 -255 -4z"/>
<path d="M6022 3745 c-239 -43 -432 -143 -580 -300 -174 -184 -252 -403 -238
-670 6 -138 29 -234 80 -340 131 -278 381 -455 716 -510 202 -32 493 -14 680
44 102 31 106 35 150 144 44 111 75 248 58 258 -34 22 -57 10 -83 -46 -108
-228 -317 -347 -584 -332 -369 21 -629 242 -724 615 -31 125 -31 399 1 517 74
272 248 452 508 527 106 30 336 33 429 4 171 -52 274 -149 326 -309 21 -66 23
-68 53 -65 l31 3 -3 60 c-2 33 -9 123 -15 199 l-12 139 -75 19 c-224 55 -546
74 -718 43z"/>
<path d="M11462 3744 c-220 -37 -448 -154 -580 -299 -175 -191 -258 -447 -232
-714 13 -132 32 -200 89 -316 131 -265 371 -432 705 -490 196 -34 503 -13 696
47 72 23 76 26 102 73 38 68 90 230 91 285 2 43 1 45 -29 48 -27 3 -33 -1 -44
-30 -27 -66 -92 -158 -151 -212 -165 -153 -430 -189 -691 -93 -200 73 -358
232 -436 441 -59 156 -81 329 -63 491 16 136 34 204 87 313 52 109 155 225
249 281 238 144 603 147 792 7 69 -51 121 -124 156 -221 24 -68 26 -70 58 -70
28 0 34 4 32 20 -1 11 -9 101 -19 201 l-17 180 -101 22 c-243 53 -510 67 -694
36z"/>
<path d="M13420 3720 c-25 -22 -55 -43 -66 -46 -16 -4 -23 -16 -27 -49 -12
-82 -544 -1468 -590 -1536 -29 -43 -78 -66 -157 -76 -64 -8 -65 -9 -65 -38 l0
-29 280 0 280 0 0 30 c0 28 -2 29 -65 37 -36 4 -75 15 -88 23 -21 14 -23 21
-17 57 4 23 41 146 82 272 56 173 81 236 99 253 25 22 30 22 277 22 210 0 256
-3 274 -15 30 -21 199 -538 187 -569 -8 -20 -46 -34 -113 -42 -67 -7 -76 -14
-67 -47 l5 -22 326 0 c290 0 326 2 330 16 9 26 -6 49 -31 49 -103 0 -185 52
-224 143 -24 54 -143 399 -401 1162 -117 346 -153 440 -166 442 -10 2 -38 -15
-63 -37z m75 -620 c59 -177 104 -327 101 -335 -4 -13 -42 -15 -231 -15 -173 0
-227 3 -230 13 -3 7 35 125 85 262 115 319 150 406 160 400 5 -3 56 -149 115
-325z"/>
<path d="M15280 3746 c-295 -52 -533 -193 -669 -395 -103 -152 -150 -299 -158
-496 -7 -167 15 -282 80 -417 125 -263 353 -430 692 -508 28 -6 131 -14 230
-17 142 -4 203 -2 290 11 133 21 376 75 390 88 6 5 -1 17 -18 31 -15 12 -32
38 -37 57 -13 44 -13 391 -1 423 16 41 51 66 103 73 40 6 49 11 54 31 4 13 3
27 0 30 -4 4 -162 7 -352 8 l-345 1 3 -31 3 -30 90 -11 c176 -22 192 -32 206
-141 11 -89 11 -222 -1 -302 -16 -112 -76 -147 -266 -158 -169 -10 -332 25
-462 98 -31 18 -95 71 -142 118 -67 67 -96 106 -132 177 -145 280 -158 666
-32 918 126 250 350 376 667 376 126 0 230 -21 314 -63 91 -47 176 -148 209
-251 21 -66 35 -80 69 -72 25 6 27 10 21 46 -11 73 -36 295 -36 327 0 28 -4
33 -24 33 -13 0 -77 12 -142 26 -102 22 -149 27 -324 30 -140 2 -229 -1 -280
-10z"/>
<path d="M17405 3754 c-264 -39 -469 -148 -621 -332 -63 -76 -155 -255 -178
-348 -83 -326 -4 -658 207 -881 191 -201 405 -288 712 -287 121 0 167 4 238
22 273 68 487 242 607 493 56 119 81 221 87 365 9 194 -20 341 -97 495 -118
237 -326 397 -594 455 -69 15 -301 27 -361 18z m250 -100 c274 -66 458 -308
520 -683 23 -138 17 -369 -14 -486 -81 -309 -306 -497 -596 -498 -190 0 -331
57 -460 187 -122 123 -193 268 -241 491 -24 111 -24 351 0 459 51 230 161 388
332 478 144 75 293 92 459 52z"/>
<path d="M7260 3694 l0 -31 66 -6 c90 -9 125 -30 146 -92 16 -46 17 -110 15
-750 -2 -639 -3 -703 -19 -731 -18 -34 -64 -57 -135 -69 -48 -8 -57 -17 -49
-48 l5 -22 335 0 c317 0 335 1 340 18 9 35 -4 45 -72 52 -88 9 -127 26 -147
66 -25 47 -36 210 -33 468 3 205 5 232 21 248 17 17 51 18 503 18 469 0 486
-1 500 -19 11 -16 14 -77 14 -325 0 -168 -5 -324 -10 -346 -14 -60 -54 -90
-139 -106 -70 -12 -71 -13 -71 -43 l0 -31 335 0 336 0 6 23 c8 32 -1 37 -82
50 -38 6 -81 20 -95 30 -57 42 -55 16 -55 782 0 757 0 763 50 796 14 9 57 21
97 28 71 12 73 13 73 41 l0 28 -333 1 -332 1 0 -31 c0 -30 1 -31 56 -38 84
-10 122 -29 142 -73 24 -54 32 -607 8 -638 -14 -19 -28 -20 -475 -23 -305 -2
-474 1 -500 8 -38 10 -40 13 -47 57 -4 26 -4 159 -2 297 7 328 14 347 146 369
39 7 74 15 77 19 4 4 5 17 2 30 l-6 23 -336 0 -335 1 0 -32z"/>
<path d="M9620 3694 c0 -31 0 -31 65 -37 117 -11 150 -42 166 -155 6 -44 9
-326 7 -720 -3 -578 -5 -651 -20 -684 -22 -50 -55 -68 -143 -80 -75 -11 -75
-11 -75 -42 l0 -31 347 1 348 0 0 29 c0 29 -2 30 -71 41 -107 18 -130 34 -149
98 -14 46 -15 143 -13 747 3 640 4 696 21 726 23 43 48 55 137 68 74 11 75 11
75 40 l0 29 -348 0 -347 1 0 -31z"/>
</g>
</svg>
